#!OML:ASF Y:\EmotionMaleHayes\Project 1\Capture day 1\Session 1\Male1.ASF
:FULLY-SPECIFIED
:DEGREES
929
root 6.62539 17.779 0.50194 -235.405 86.8898 -232.001
lowerback 12.1463 0.711938 -3.76897
upperback -1.44132 0.385839 -0.055024
thorax -8.40335 0.36547 1.99586
lowerneck -26.7675 0.440693 1.65831
upperneck 14.1866 -0.0575516 0.289821
head 8.76465 0.110416 -0.171761
rclavicle 4.35307e-015 -1.88845e-014
rhumerus -24.971 1.59064 -6.28041
rradius 42.8745
rwrist -9.98288
rhand -1.70974 -29.7673
rfingers 7.12502
rthumb 23.9518 -58.2932
lclavicle 4.35307e-015 -1.88845e-014
lhumerus -20.0573 -2.98469 7.77594
lradius 34.2079
lwrist -5.94719
lhand -9.81855 -22.7653
lfingers 7.12502
lthumb 16.1584 6.58117
rfemur 14.5678 -9.34166 7.68346
rtibia 0.488839
rfoot -11.2388 1.48878
rtoes 7.77188
lfemur 14.8779 -2.02596 -13.9732
ltibia -3.95591
lfoot -8.89709 9.75639
ltoes -1.68135
930
root 6.63473 17.7757 0.495629 -237.71 86.901 -234.271
lowerback 12.0357 0.749042 -3.81158
upperback -1.50544 0.428965 -0.0931289
thorax -8.41226 0.388228 1.97112
lowerneck -26.5053 0.492159 1.66445
upperneck 14.1769 0.0129374 0.295708
head 8.71955 0.143483 -0.160718
rclavicle 2.18974e-015 -5.76476e-015
rhumerus -23.973 -3.98549 -5.20544
rradius 40.8417
rwrist -7.97119
rhand -5.76156 -29.5471
rfingers 7.12502
rthumb 20.0616 -58.5314
lclavicle 2.18974e-015 -5.76476e-015
lhumerus -18.7415 3.33386 6.59889
lradius 32.156
lwrist -8.29786
lhand -14.017 -23.7263
lfingers 7.12502
lthumb 12.1127 5.90307
rfemur 14.6266 -9.27235 7.58376
rtibia 0.567002
rfoot -11.3178 1.56833
rtoes 7.76393
lfemur 14.9611 -1.96326 -14.07
ltibia -3.88329
lfoot -9.02842 9.73247
ltoes -1.47843
931
root 6.64153 17.7744 0.491962 -239.203 86.9393 -235.728
lowerback 11.9109 0.770737 -3.86263
upperback -1.55595 0.454777 -0.0880121
thorax -8.39765 0.403523 2.00084
lowerneck -26.3388 0.547635 1.62997
upperneck 14.2991 0.09531 0.324034
head 8.73568 0.183198 -0.133646
rclavicle 3.28927e-015 -6.16232e-015
rhumerus -23.1638 -9.34952 -4.24714
rradius 39.146
rwrist -6.31083
rhand -9.24418 -29.1585
rfingers 7.12502
rthumb 16.7114 -58.4592
lclavicle 3.28927e-015 -6.16232e-015
lhumerus -17.6928 9.91213 5.62462
lradius 30.4193
lwrist -10.426
lhand -18.373 -24.418
lfingers 7.12502
lthumb 7.91033 5.41402
rfemur 14.6869 -9.27024 7.53398
rtibia 0.507884
rfoot -11.2401 1.64722
rtoes 7.88578
lfemur 15.0509 -1.97913 -14.1004
ltibia -3.88638
lfoot -9.09575 9.7762
ltoes -1.5759
932
root 6.6473 17.7734 0.490218 -239.441 87.0621 -235.917
lowerback 11.8232 0.787658 -3.78847
upperback -1.64492 0.489475 -0.0889418
thorax -8.4449 0.41851 1.9514
lowerneck -26.2106 0.605369 1.74811
upperneck 14.6241 0.145032 0.242747
head 8.82853 0.204768 -0.173653
rclavicle -4.43538e-015 6.16232e-015
rhumerus -22.6575 -14.3865 -3.42214
rradius 37.8783
rwrist -5.24069
rhand -12.1581 -29.2327
rfingers 7.12502
rthumb 13.9047 -58.7478
lclavicle -4.43538e-015 6.16232e-015
lhumerus -16.8558 16.3662 4.73623
lradius 29.0934
lwrist -12.1336
lhand -22.348 -25.3528
lfingers 7.12502
lthumb 4.07271 4.58804
rfemur 14.7768 -9.2261 7.65189
rtibia 0.368522
rfoot -11.0893 1.67919
rtoes 7.74404
lfemur 15.1601 -1.98547 -13.9647
ltibia -3.91082
lfoot -9.21174 9.76022
ltoes -1.31118
933
root 6.6546 17.7721 0.48953 -237.801 87.3856 -234.188
lowerback 11.7402 0.814671 -3.51463
upperback -1.69925 0.573043 -0.0183931
thorax -8.45806 0.448219 1.85644
lowerneck -26.2127 0.621757 1.89429
upperneck 15.0536 0.14559 0.0673452
head 8.979 0.194951 -0.258035
rclavicle -7.63147e-015 -3.57812e-015
rhumerus -22.2968 -19.2539 -2.69302
rradius 36.9373
rwrist -4.91739
rhand -14.7772 -29.8106
rfingers 7.12502
rthumb 11.3796 -59.4818
lclavicle -7.63147e-015 -3.57812e-015
lhumerus -16.1363 22.2651 4.0935
lradius 28.1296
lwrist -12.982
lhand -25.5316 -26.6617
lfingers 7.12502
lthumb 0.998155 3.31572
rfemur 14.8915 -9.1382 8.06595
rtibia 0.256372
rfoot -11.0096 1.56663
rtoes 7.57459
lfemur 15.315 -1.8724 -13.4985
ltibia -3.89239
lfoot -9.28997 9.6131
ltoes -1.53561
934
root 6.66072 17.7727 0.487127 -239.389 87.5632 -235.727
lowerback 11.6203 0.894738 -3.44562
upperback -1.71626 0.695816 0.00106901
thorax -8.41394 0.504299 1.81579
lowerneck -26.3455 0.572383 1.89229
upperneck 15.5046 0.0824564 0.0165083
head 9.15842 0.161767 -0.285055
rclavicle 7.53208e-015 -4.37326e-015
rhumerus -22.0894 -23.7743 -2.02805
rradius 36.169
rwrist -5.2823
rhand -17.0884 -30.6153
rfingers 7.12502
rthumb 9.15 -60.3968
lclavicle 7.53208e-015 -4.37326e-015
lhumerus -15.4729 27.0538 3.80434
lradius 27.5971
lwrist -12.2569
lhand -27.9274 -27.7782
lfingers 7.12502
lthumb -1.31583 2.19751
rfemur 14.9137 -9.03265 8.21422
rtibia 0.256999
rfoot -11.0087 1.47408
rtoes 6.08435
lfemur 15.4541 -1.79 -13.3338
ltibia -3.93825
lfoot -9.29651 9.62277
ltoes -2.54237
935
root 6.66747 17.7737 0.484555 -242.975 87.4447 -239.282
lowerback 11.5103 0.994411 -3.63511
upperback -1.76587 0.797999 -0.0883184
thorax -8.41259 0.561291 1.8088
lowerneck -26.2825 0.499696 1.89439
upperneck 15.8042 -0.0157736 0.00341142
head 9.25258 0.116223 -0.305204
rclavicle -7.51655e-015 -2.28105e-014
rhumerus -22.1145 -27.4585 -1.39997
rradius 35.6727
rwrist -6.29903
rhand -18.8574 -31.8884
rfingers 7.12502
rthumb 7.44281 -61.7375
lclavicle -7.51655e-015 -2.28105e-014
lhumerus -14.8668 30.6595 3.80061
lradius 27.548
lwrist -10.3326
lhand -29.7296 -28.4342
lfingers 7.12502
lthumb -3.0563 1.52361
rfemur 14.9621 -8.94582 7.98498
rtibia 0.259673
rfoot -11.0352 1.47333
rtoes 5.88619
lfemur 15.5849 -1.70737 -13.537
ltibia -4.06343
lfoot -9.16939 9.62187
ltoes -3.76748
936
root 6.67604 17.7753 0.479425 -245.574 87.2165 -241.854
lowerback 11.4063 1.05646 -3.86974
upperback -1.84341 0.842046 -0.191956
thorax -8.4423 0.592935 1.82277
lowerneck -26.0941 0.461105 1.88904
upperneck 15.998 -0.0563996 -0.030459
head 9.28917 0.0938001 -0.322746
rclavicle 3.93532e-015 1.98785e-015
rhumerus -22.0878 -30.0843 -0.929984
rradius 35.4531
rwrist -8.00912
rhand -20.2106 -33.4436
rfingers 7.12502
rthumb 6.13652 -63.3348
lclavicle 3.93532e-015 1.98785e-015
lhumerus -14.3774 33.6142 3.89239
lradius 27.6807
lwrist -8.47659
lhand -30.9816 -28.8493
lfingers 7.12502
lthumb -4.26535 1.08771
rfemur 15.0328 -9.06594 7.57767
rtibia 0.268282
rfoot -10.9833 1.63411
rtoes 6.12906
lfemur 15.6636 -1.53407 -13.8196
ltibia -4.09641
lfoot -9.03332 9.43902
ltoes -4.03374
937
root 6.6844 17.7763 0.472199 -247.068 87.1688 -243.29
lowerback 11.2978 1.07554 -3.94101
upperback -1.85527 0.861525 -0.199913
thorax -8.39512 0.605057 1.85194
lowerneck -25.9206 0.48729 1.79195
upperneck 16.0277 0.013245 -0.00801683
head 9.27135 0.122518 -0.288917
rclavicle 1.02343e-014 -2.9271e-014
rhumerus -21.7702 -31.9926 -0.735676
rradius 35.2481
rwrist -9.64114
rhand -21.6462 -35.0249
rfingers 7.12502
rthumb 4.75038 -64.9516
lclavicle 1.02343e-014 -2.9271e-014
lhumerus -14.0398 36.0032 3.97216
lradius 27.7376
lwrist -6.94367
lhand -32.0037 -29.1257
lfingers 7.12502
lthumb -5.25235 0.789187
rfemur 15.1231 -9.23662 7.3626
rtibia 0.240611
rfoot -10.8503 1.86464
rtoes 6.19624
lfemur 15.786 -1.45037 -13.934
ltibia -4.12561
lfoot -9.08351 9.38456
ltoes -3.81343
